<svg xmlns="http://www.w3.org/2000/svg" width="512" height="512" viewBox="0 0 512 512">
  <defs>
    <linearGradient id="g" x1="0" y1="0" x2="1" y2="1">
      <stop offset="0" stop-color="#0ea5e9"/>
      <stop offset="1" stop-color="#22c55e"/>
    </linearGradient>
  </defs>
  <rect x="48" y="48" width="416" height="416" rx="96" fill="#0b1220"/>
  <rect x="72" y="72" width="368" height="368" rx="84" fill="#0f172a" stroke="#1f2937" stroke-width="8"/>

  <!-- Solar panel (technical grid) -->
  <g transform="translate(92 160)">
    <rect x="0" y="0" width="328" height="190" rx="20" fill="url(#g)" opacity="0.18"/>
    <rect x="0" y="0" width="328" height="190" rx="20" fill="#0b1220" stroke="#334155" stroke-width="10"/>
    <g stroke="#334155" stroke-width="6" opacity="0.9">
      <line x1="54" y1="12" x2="54" y2="178"/>
      <line x1="110" y1="12" x2="110" y2="178"/>
      <line x1="166" y1="12" x2="166" y2="178"/>
      <line x1="222" y1="12" x2="222" y2="178"/>
      <line x1="278" y1="12" x2="278" y2="178"/>

      <line x1="12" y1="54" x2="316" y2="54"/>
      <line x1="12" y1="102" x2="316" y2="102"/>
      <line x1="12" y1="150" x2="316" y2="150"/>
    </g>
    <path d="M24 170 L304 22" stroke="url(#g)" stroke-width="10" opacity="0.55"/>
  </g>

  <!-- Sun + rays (technical) -->
  <g transform="translate(156 88)">
    <circle cx="100" cy="60" r="26" fill="url(#g)"/>
    <g stroke="url(#g)" stroke-width="10" stroke-linecap="round" opacity="0.95">
      <line x1="100" y1="14" x2="100" y2="0"/>
      <line x1="100" y1="120" x2="100" y2="134"/>
      <line x1="54" y1="60" x2="40" y2="60"/>
      <line x1="160" y1="60" x2="174" y2="60"/>
      <line x1="68" y1="28" x2="58" y2="18"/>
      <line x1="132" y1="92" x2="142" y2="102"/>
      <line x1="132" y1="28" x2="142" y2="18"/>
      <line x1="68" y1="92" x2="58" y2="102"/>
    </g>
  </g>

  <!-- Circuit nodes -->
  <g fill="url(#g)" opacity="0.9">
    <circle cx="122" cy="372" r="10"/>
    <circle cx="390" cy="184" r="10"/>
    <circle cx="388" cy="372" r="10"/>
  </g>
  <g stroke="url(#g)" stroke-width="8" opacity="0.55" stroke-linecap="round">
    <path d="M122 372 C 180 332, 228 332, 256 350"/>
    <path d="M256 350 C 300 380, 332 380, 388 372"/>
    <path d="M390 184 C 344 210, 310 230, 274 252"/>
  </g>
</svg>
